<?xml version="1.0" encoding="utf-8"?>
<svg viewBox="0 0 512 512" xmlns="http://www.w3.org/2000/svg">
  <path d="M 416 208 C 416 253.9 401.1 296.3 376 330.7 L 502.6 457.4 C 515.1 469.9 503.7 474.835 491.2 487.335 C 478.7 499.835 469.8 515.2 457.3 502.7 L 330.7 376 C 296.3 401.2 253.9 416 208 416 C 93.1 416 0 322.9 0 208 C 0 93.1 93.1 0 208 0 C 322.9 0 416 93.1 416 208 Z M 208 352 C 287.5 352 352 287.5 352 208 C 352 128.5 287.5 64 208 64 C 128.5 64 64 128.5 64 208 C 64 287.5 128.5 352 208 352 Z" style="fill: rgb(255, 255, 255);"/>
  <path d="M 416.5 208 C 416.5 253.983 401.638 296.246 376.656 330.649 L 502.954 457.046 C 509.26 463.384 512.475 471.761 512.475 480.05 C 512.475 488.339 509.276 496.731 502.954 503.054 C 496.631 509.376 488.239 512.575 479.95 512.575 C 471.661 512.575 463.284 509.36 456.946 503.053 L 330.649 376.656 C 296.245 401.737 253.982 416.5 208 416.5 C 150.448 416.5 98.259 393.142 60.559 355.441 C 22.858 317.741 -0.5 265.552 -0.5 208 C -0.5 150.448 22.858 98.259 60.559 60.559 C 98.259 22.858 150.448 -0.5 208 -0.5 C 265.552 -0.5 317.741 22.858 355.441 60.559 C 393.142 98.259 416.5 150.448 416.5 208 Z M 354.734 61.266 C 317.159 23.692 265.348 0.5 208 0.5 C 150.652 0.5 98.841 23.692 61.266 61.266 C 23.692 98.841 0.5 150.652 0.5 208 C 0.5 265.348 23.692 317.159 61.266 354.734 C 98.841 392.308 150.652 415.5 208 415.5 C 253.818 415.5 296.07 400.762 330.405 375.597 L 330.75 375.343 L 457.654 502.347 C 463.816 508.54 471.839 511.575 479.95 511.575 C 488.061 511.575 496.069 508.524 502.246 502.346 C 508.424 496.169 511.475 488.161 511.475 480.05 C 511.475 471.939 508.44 463.916 502.246 457.754 L 375.344 330.751 L 375.596 330.405 C 400.662 296.07 415.5 253.817 415.5 208 C 415.5 150.652 392.308 98.841 354.734 61.266 Z M 63.5 208 C 63.5 168.148 79.708 131.959 105.834 105.834 C 131.959 79.708 168.148 63.5 208 63.5 C 247.852 63.5 284.041 79.708 310.166 105.834 C 336.292 131.959 352.5 168.148 352.5 208 C 352.5 247.852 336.292 284.041 310.166 310.166 C 284.041 336.292 247.852 352.5 208 352.5 C 168.148 352.5 131.959 336.292 105.834 310.166 C 79.708 284.041 63.5 247.852 63.5 208 Z M 106.541 309.459 C 132.541 335.458 168.352 351.5 208 351.5 C 247.648 351.5 283.459 335.458 309.459 309.459 C 335.458 283.459 351.5 247.648 351.5 208 C 351.5 168.352 335.458 132.541 309.459 106.541 C 283.459 80.542 247.648 64.5 208 64.5 C 168.352 64.5 132.541 80.542 106.541 106.541 C 80.542 132.541 64.5 168.352 64.5 208 C 64.5 247.648 80.542 283.459 106.541 309.459 Z" style="fill: none;"/>
</svg>